:FULLY-SPECIFIED
:FORCE-ALL-JOINTS-BE-3DOF
:DEGREES
1
root 6.24314 16.836 -28.1378 9.0217 -2.52979 -3.05774
lfemur -20.3712 2.30257 -19.9954
ltibia 35.927 0 0
lfoot -38.654 3.93715 0
ltoes 38.9541 0 0
rfemur -19.4747 0.22019 19.5256
rtibia 36.0342 0 0
rfoot -30.3779 -10.4967 0
rtoes 21.4483 0 0
lowerback -2.05144 3.66971 -5.03766
upperback -2.66728 5.00355 3.49279
thorax -2.36397 2.67023 6.42441
lowerneck -9.84699 -2.36864 1.94815
upperneck -1.37933 -3.32542 -1.65382
head 1.16433 -1.69823 -0.975663
lclavicle -1.65488e-014 -3.69739e-014 0
lhumerus -41.7253 -10.8128 99.8312
lradius 34.5094 0 0
lwrist 2.17521 0 0
lhand -10.5949 9.65639 0
lfingers 7.12502 0 0
lthumb 15.4107 39.062 0
rclavicle -1.65488e-014 -3.69739e-014 0
rhumerus -43.273 -4.86223 -84.2703
rradius 40.4763 0 0
rwrist 9.89469 0 0
rhand -23.7965 -22.476 0
rfingers 7.12502 0 0
rthumb 2.67393 -52.439 0
2
root 6.2343 16.8395 -28.1323 9.06422 -2.55165 -3.03106
lfemur -20.338 2.28876 -19.9915
ltibia 35.8236 -0 0
lfoot -38.5754 3.98622 0.00033656
ltoes 38.9015 -0 0
rfemur -19.3256 0.494242 19.5184
rtibia 35.734 -0 0
rfoot -30.3154 -10.7799 -0.00154417
rtoes 21.3853 -0 0
lowerback -2.21735 3.6469 -4.93603
upperback -2.63294 4.97674 3.41354
thorax -2.21548 2.64708 6.29777
lowerneck -9.85178 -2.3537 1.97746
upperneck -1.43067 -3.31012 -1.59825
head 1.14926 -1.68964 -0.961941
lclavicle 2.83268e-015 -6.75868e-015 0
lhumerus -41.7451 -10.8741 99.7139
lradius 34.5909 -0 0
lwrist 2.28155 0 0
lhand -10.6617 9.09905 0.00325369
lfingers 7.12502 -0 0
lthumb 15.3463 38.5095 0.00310713
rclavicle 2.83268e-015 -6.75868e-015 0
rhumerus -43.1703 -4.88309 -84.4185
rradius 40.4384 -0 0
rwrist 9.93384 0 0
rhand -23.9013 -22.3754 -0.000919393
rfingers 7.12502 -0 0
rthumb 2.57275 -52.3394 -0.000879169
3
root 6.22547 16.8429 -28.1269 9.10674 -2.57352 -3.0044
lfemur -20.3048 2.27496 -19.9876
ltibia 35.7202 -0 0
lfoot -38.4968 4.03528 0.000605809
ltoes 38.8489 -0 0
rfemur -19.1764 0.768311 19.512
rtibia 35.4338 -0 0
rfoot -30.253 -11.0632 -0.00277956
rtoes 21.3224 -0 0
lowerback -2.3833 3.62439 -4.83433
upperback -2.59856 4.94998 3.33428
thorax -2.06695 2.62426 6.17108
lowerneck -9.85656 -2.33875 2.00676
upperneck -1.482 -3.29477 -1.5427
head 1.13418 -1.68105 -0.948222
lclavicle 2.83268e-015 -6.75868e-015 0
lhumerus -41.7649 -10.9354 99.5966
lradius 34.6724 -0 0
lwrist 2.38789 0 0
lhand -10.7286 8.5417 0.00585701
lfingers 7.12502 -0 0
lthumb 15.2819 37.957 0.00559318
rclavicle 2.83268e-015 -6.75868e-015 0
rhumerus -43.0675 -4.90368 -84.5667
rradius 40.4005 -0 0
rwrist 9.97298 0 0
rhand -24.006 -22.2749 -0.00165491
rfingers 7.12502 -0 0
rthumb 2.47156 -52.2399 -0.00158251
4
root 6.21663 16.8464 -28.1214 9.14924 -2.59542 -2.97776
lfemur -20.2715 2.26115 -19.9837
ltibia 35.6168 -0 0
lfoot -38.4182 4.08435 0.000807747
ltoes 38.7963 -0 0
rfemur -19.0273 1.0424 19.5062
rtibia 35.1335 -0 0
rfoot -30.1905 -11.3464 -0.00370613
rtoes 21.2594 -0 0
lowerback -2.54928 3.60217 -4.73257
upperback -2.56414 4.92327 3.25501
thorax -1.91837 2.60177 6.04433
lowerneck -9.86133 -2.3238 2.03606
upperneck -1.53331 -3.27937 -1.48716
head 1.11911 -1.67245 -0.934505
lclavicle 2.83268e-015 -6.75868e-015 0
lhumerus -41.7844 -10.9968 99.4793
lradius 34.7539 -0 0
lwrist 2.49422 0 0
lhand -10.7955 7.98435 0.00780972
lfingers 7.12502 -0 0
lthumb 15.2175 37.4045 0.00745793
rclavicle 2.83268e-015 -6.75868e-015 0
rhumerus -42.9647 -4.92401 -84.715
rradius 40.3627 -0 0
rwrist 10.0121 0 0
rhand -24.1108 -22.1743 -0.00220656
rfingers 7.12502 -0 0
rthumb 2.37037 -52.1403 -0.00211002
5
root 6.2078 16.8499 -28.116 9.19174 -2.61733 -2.95113
lfemur -20.2383 2.24734 -19.9798
ltibia 35.5134 -0 0
lfoot -38.3396 4.13342 0.000942372
ltoes 38.7437 -0 0
rfemur -18.8782 1.3165 19.5012
rtibia 34.8333 -0 0
rfoot -30.128 -11.6296 -0.00432385
rtoes 21.1964 -0 0
lowerback -2.7153 3.58024 -4.63075
upperback -2.52969 4.89661 3.17572
thorax -1.76974 2.57961 5.91753
lowerneck -9.8661 -2.30885 2.06536
upperneck -1.5846 -3.26393 -1.43163
head 1.10405 -1.66385 -0.92079
lclavicle 2.83268e-015 -6.75868e-015 0
lhumerus -41.8039 -11.0582 99.3619
lradius 34.8354 -0 0
lwrist 2.60056 0 0
lhand -10.8624 7.427 0.00911164
lfingers 7.12502 -0 0
lthumb 15.153 36.8519 0.00870119
rclavicle 2.83268e-015 -6.75868e-015 0
rhumerus -42.8618 -4.94408 -84.8633
rradius 40.3248 -0 0
rwrist 10.0513 0 0
rhand -24.2156 -22.0737 -0.00257433
rfingers 7.12502 -0 0
rthumb 2.26919 -52.0407 -0.0024617
6
root 6.19896 16.8533 -28.1105 9.23422 -2.63927 -2.92451
lfemur -20.2051 2.23352 -19.9759
ltibia 35.41 -0 0
lfoot -38.261 4.18249 0.00100969
ltoes 38.6911 -0 0
rfemur -18.7292 1.59061 19.4969
rtibia 34.5331 -0 0
rfoot -30.0655 -11.9129 -0.00463272
rtoes 21.1335 -0 0
lowerback -2.88136 3.55861 -4.52887
upperback -2.4952 4.86999 3.09643
thorax -1.62106 2.55778 5.79067
lowerneck -9.87086 -2.29389 2.09466
upperneck -1.63588 -3.24843 -1.37612
head 1.08898 -1.65524 -0.907078
lclavicle 2.83268e-015 -6.75868e-015 0
lhumerus -41.8233 -11.1196 99.2446
lradius 34.9169 -0 0
lwrist 2.7069 0 0
lhand -10.9293 6.86965 0.00976262
lfingers 7.12502 -0 0
lthumb 15.0885 36.2994 0.00932285
rclavicle 2.83268e-015 -6.75868e-015 0
rhumerus -42.7589 -4.96388 -85.0116
rradius 40.2869 -0 0
rwrist 10.0904 0 0
rhand -24.3203 -21.9732 -0.00275821
rfingers 7.12502 -0 0
rthumb 2.168 -51.9412 -0.00263753
7
root 6.19013 16.8568 -28.1051 9.2767 -2.66122 -2.89791
lfemur -20.1719 2.21971 -19.972
ltibia 35.3066 -0 0
lfoot -38.1824 4.23155 0.00100969
ltoes 38.6385 -0 0
rfemur -18.5801 1.86473 19.4932
rtibia 34.2329 -0 0
rfoot -30.0031 -12.1961 -0.00463272
rtoes 21.0705 -0 0
lowerback -3.04745 3.53728 -4.42693
upperback -2.46068 4.84342 3.01711
thorax -1.47234 2.53627 5.66375
lowerneck -9.87561 -2.27894 2.12396
upperneck -1.68714 -3.23288 -1.32063
head 1.07392 -1.64663 -0.893368
lclavicle 2.83268e-015 -6.75868e-015 0
lhumerus -41.8425 -11.1811 99.1273
lradius 34.9985 -0 0
lwrist 2.81324 0 0
lhand -10.9963 6.3123 0.00976262
lfingers 7.12502 -0 0
lthumb 15.0241 35.7469 0.00932285
rclavicle 2.83268e-015 -6.75868e-015 0
rhumerus -42.6559 -4.98341 -85.16
rradius 40.249 -0 0
rwrist 10.1296 0 0
rhand -24.4251 -21.8726 -0.00275821
rfingers 7.12502 -0 0
rthumb 2.06681 -51.8416 -0.00263753
